<svg width="15" height="30" viewBox="0 0 15 30" fill="none" xmlns="http://www.w3.org/2000/svg">
<path d="M19.21 16.46C19.21 18.27 20.68 19.74 22.49 19.74C23.1693 19.7384 23.8316 19.5272 24.3864 19.1353C24.9412 18.7433 25.3615 18.1897 25.59 17.55C25.6264 17.4482 25.6424 17.3403 25.637 17.2324C25.6315 17.1244 25.6048 17.0186 25.5583 16.921C25.5119 16.8234 25.4466 16.736 25.3662 16.6638C25.2858 16.5915 25.192 16.5359 25.09 16.5C24.9883 16.4636 24.8803 16.4476 24.7724 16.453C24.6644 16.4585 24.5586 16.4852 24.461 16.5317C24.3635 16.5781 24.276 16.6434 24.2038 16.7238C24.1315 16.8042 24.0759 16.898 24.04 17C23.81 17.66 23.18 18.1 22.49 18.1C21.59 18.1 20.85 17.36 20.85 16.46V15.27C20.85 14.37 21.59 13.63 22.49 13.63C23.19 13.63 23.81 14.07 24.04 14.73C24.19 15.16 24.66 15.38 25.09 15.23C25.192 15.1941 25.2858 15.1385 25.3662 15.0662C25.4466 14.994 25.5119 14.9066 25.5583 14.809C25.6048 14.7114 25.6315 14.6056 25.637 14.4976C25.6424 14.3897 25.6264 14.2818 25.59 14.18C25.3615 13.5403 24.9412 12.9867 24.3864 12.5947C23.8316 12.2028 23.1693 11.9916 22.49 11.99C20.68 11.99 19.21 13.46 19.21 15.27V16.46ZM11.78 18.92C11.78 19.37 12.15 19.74 12.6 19.74C12.93 19.74 13.217 19.54 13.347 19.257C13.8443 19.5608 14.4134 19.7267 14.996 19.7377C15.5786 19.7487 16.1536 19.6044 16.662 19.3196C17.1704 19.0348 17.5938 18.6199 17.8887 18.1173C18.1836 17.6147 18.3393 17.0427 18.34 16.46V15.27C18.3393 14.6945 18.1873 14.1293 17.8992 13.6312C17.6112 13.133 17.1972 12.7193 16.6988 12.4316C16.2004 12.1439 15.6351 11.9923 15.0596 11.992C14.4841 11.9917 13.9187 12.1428 13.42 12.43V9.08C13.42 8.63 13.05 8.26 12.6 8.26C12.15 8.26 11.78 8.63 11.78 9.08V18.92ZM13.42 15.27C13.42 14.37 14.16 13.63 15.06 13.63C15.96 13.63 16.7 14.37 16.7 15.27V16.46C16.7 17.36 15.96 18.1 15.06 18.1C14.16 18.1 13.42 17.36 13.42 16.46V15.27ZM8.997 19.163C9.04955 19.3297 9.1537 19.4755 9.29443 19.5792C9.43516 19.6829 9.60519 19.7392 9.78 19.74C10.23 19.74 10.6 19.37 10.6 18.92V14.96C10.6 14.1723 10.2871 13.4169 9.73011 12.8599C9.17313 12.3029 8.4177 11.99 7.63 11.99H5.68C5.23 11.99 4.86 12.36 4.86 12.81C4.86 13.26 5.23 13.63 5.68 13.63H7.63C8.36 13.63 8.96 14.22 8.96 14.96V15.2H6.65C5.4 15.2 4.38 16.22 4.38 17.47C4.38 18.72 5.4 19.74 6.65 19.74H7.14001C7.82801 19.74 8.467 19.526 8.997 19.163ZM5.87 17.47C5.87 17.04 6.22 16.69 6.65 16.69H8.92C8.81 17.57 8.05001 18.25 7.14001 18.25H6.65C6.22 18.25 5.87 17.9 5.87 17.47Z" fill="#1B1B1B"/>
<path d="M5 0C4.34339 0 3.69321 0.129329 3.08658 0.380602C2.47995 0.631876 1.92876 1.00017 1.46447 1.46447C0.526784 2.40215 0 3.67392 0 5V25C0 26.3261 0.526784 27.5979 1.46447 28.5355C1.92876 28.9998 2.47995 29.3681 3.08658 29.6194C3.69321 29.8707 4.34339 30 5 30H25C26.3261 30 27.5979 29.4732 28.5355 28.5355C29.4732 27.5979 30 26.3261 30 25V5C30 4.34339 29.8707 3.69321 29.6194 3.08658C29.3681 2.47995 28.9998 1.92876 28.5355 1.46447C28.0712 1.00017 27.52 0.631876 26.9134 0.380602C26.3068 0.129329 25.6566 0 25 0H5ZM2 5C2 4.20435 2.31607 3.44129 2.87868 2.87868C3.44129 2.31607 4.20435 2 5 2H25C25.7956 2 26.5587 2.31607 27.1213 2.87868C27.6839 3.44129 28 4.20435 28 5V25C28 25.7956 27.6839 26.5587 27.1213 27.1213C26.5587 27.6839 25.7956 28 25 28H5C4.20435 28 3.44129 27.6839 2.87868 27.1213C2.31607 26.5587 2 25.7956 2 25V5Z" fill="#1B1B1B"/>
</svg>
