<svg width="21" height="21" viewBox="0 0 21 21" fill="none" xmlns="http://www.w3.org/2000/svg">
<path d="M16.9167 10.5C16.4525 10.5 16.0074 10.3156 15.6792 9.98744C15.351 9.65925 15.1667 9.21413 15.1667 8.75C15.1667 8.28587 15.351 7.84075 15.6792 7.51256C16.0074 7.18437 16.4525 7 16.9167 7C17.3808 7 17.8259 7.18437 18.1541 7.51256C18.4823 7.84075 18.6667 8.28587 18.6667 8.75C18.6667 9.21413 18.4823 9.65925 18.1541 9.98744C17.8259 10.3156 17.3808 10.5 16.9167 10.5ZM13.4167 5.83333C12.9525 5.83333 12.5074 5.64896 12.1792 5.32077C11.851 4.99258 11.6667 4.54746 11.6667 4.08333C11.6667 3.6192 11.851 3.17408 12.1792 2.8459C12.5074 2.51771 12.9525 2.33333 13.4167 2.33333C13.8808 2.33333 14.3259 2.51771 14.6541 2.8459C14.9823 3.17408 15.1667 3.6192 15.1667 4.08333C15.1667 4.54746 14.9823 4.99258 14.6541 5.32077C14.3259 5.64896 13.8808 5.83333 13.4167 5.83333ZM7.58333 5.83333C7.1192 5.83333 6.67408 5.64896 6.3459 5.32077C6.01771 4.99258 5.83333 4.54746 5.83333 4.08333C5.83333 3.6192 6.01771 3.17408 6.3459 2.8459C6.67408 2.51771 7.1192 2.33333 7.58333 2.33333C8.04746 2.33333 8.49258 2.51771 8.82077 2.8459C9.14896 3.17408 9.33333 3.6192 9.33333 4.08333C9.33333 4.54746 9.14896 4.99258 8.82077 5.32077C8.49258 5.64896 8.04746 5.83333 7.58333 5.83333ZM4.08333 10.5C3.6192 10.5 3.17408 10.3156 2.8459 9.98744C2.51771 9.65925 2.33333 9.21413 2.33333 8.75C2.33333 8.28587 2.51771 7.84075 2.8459 7.51256C3.17408 7.18437 3.6192 7 4.08333 7C4.54746 7 4.99258 7.18437 5.32077 7.51256C5.64896 7.84075 5.83333 8.28587 5.83333 8.75C5.83333 9.21413 5.64896 9.65925 5.32077 9.98744C4.99258 10.3156 4.54746 10.5 4.08333 10.5ZM10.5 0C7.71523 0 5.04451 1.10625 3.07538 3.07538C1.10625 5.04451 0 7.71523 0 10.5C0 13.2848 1.10625 15.9555 3.07538 17.9246C5.04451 19.8938 7.71523 21 10.5 21C10.9641 21 11.4092 20.8156 11.7374 20.4874C12.0656 20.1592 12.25 19.7141 12.25 19.25C12.25 18.795 12.075 18.3867 11.795 18.0833C11.5267 17.7683 11.3517 17.36 11.3517 16.9167C11.3517 16.4525 11.536 16.0074 11.8642 15.6792C12.1924 15.351 12.6375 15.1667 13.1017 15.1667H15.1667C16.7138 15.1667 18.1975 14.5521 19.2915 13.4581C20.3854 12.3642 21 10.8804 21 9.33333C21 4.17667 16.2983 0 10.5 0Z" fill="#1B1B1B"/>
</svg>
