<svg width="19" height="18" viewBox="0 0 19 18" fill="none" xmlns="http://www.w3.org/2000/svg">
<path d="M0 18V16.1053H8.55V5.51842C8.13833 5.37632 7.78208 5.15526 7.48125 4.85526C7.18042 4.55526 6.95875 4.2 6.81625 3.78948H3.8L6.65 10.4211C6.65 11.2105 6.32542 11.8816 5.67625 12.4342C5.02708 12.9868 4.24333 13.2632 3.325 13.2632C2.40667 13.2632 1.62292 12.9868 0.97375 12.4342C0.324583 11.8816 0 11.2105 0 10.4211L2.85 3.78948H0.95V1.89474H6.81625C7.00625 1.34211 7.34667 0.888002 7.8375 0.532423C8.32833 0.176844 8.8825 -0.000629899 9.5 1.67973e-06C10.1175 1.67973e-06 10.6717 0.177791 11.1625 0.53337C11.6533 0.888949 11.9937 1.34274 12.1837 1.89474H18.05V3.78948H16.15L19 10.4211C19 11.2105 18.6754 11.8816 18.0263 12.4342C17.3771 12.9868 16.5933 13.2632 15.675 13.2632C14.7567 13.2632 13.9729 12.9868 13.3237 12.4342C12.6746 11.8816 12.35 11.2105 12.35 10.4211L15.2 3.78948H12.1837C12.0412 4.2 11.8196 4.55526 11.5188 4.85526C11.2179 5.15526 10.8617 5.37632 10.45 5.51842V16.1053H19V18H0ZM13.8938 10.4211H17.4562L15.675 6.3L13.8938 10.4211ZM1.54375 10.4211H5.10625L3.325 6.3L1.54375 10.4211ZM9.5 3.78948C9.76917 3.78948 9.99495 3.69853 10.1774 3.51663C10.3597 3.33474 10.4506 3.1099 10.45 2.84211C10.45 2.57369 10.3588 2.34853 10.1764 2.16663C9.994 1.98474 9.76853 1.89411 9.5 1.89474C9.23083 1.89474 9.00505 1.98569 8.82265 2.16758C8.64025 2.34948 8.54937 2.57432 8.55 2.84211C8.55 3.11053 8.6412 3.33569 8.8236 3.51758C9.006 3.69947 9.23147 3.79011 9.5 3.78948Z" fill="#1B1B1B"/>
</svg>
