<svg width="24" height="24" viewBox="0 0 24 24" fill="none" xmlns="http://www.w3.org/2000/svg">
<path d="M12 0C5.3728 0 0 5.3728 0 12C0 18.6272 5.3728 24 12 24C18.6272 24 24 18.6272 24 12C24 5.3728 18.6272 0 12 0ZM20.6708 4.9196H12V7.2796H22.1532C22.5058 8.03392 22.7723 8.82558 22.9476 9.6396H12V7.2796H7.28V12H23.2C23.2 12.8092 23.1116 13.5984 22.9476 14.36H1.0524C0.884906 13.5845 0.800298 12.7934 0.8 12H4.92V7.28H1.8468C2.24096 6.43471 2.73908 5.64191 3.3296 4.92H4.92V3.3296C5.64201 2.73921 6.43479 2.24111 7.28 1.8468V4.92H12V2.56H18.0152C19.0195 3.20126 19.9159 3.99767 20.6708 4.9196ZM3.3292 19.08C2.73895 18.3579 2.24086 17.5651 1.8464 16.72H22.1536C21.7594 17.5652 21.2615 18.358 20.6712 19.08H3.3292ZM5.9844 21.44H18.0156C16.2204 22.5909 14.1324 23.2018 12 23.2C9.86759 23.2018 7.77955 22.5909 5.9844 21.44Z" fill="#1B1B1B"/>
</svg>
