<svg width="22" height="24" viewBox="0 0 22 24" fill="none" xmlns="http://www.w3.org/2000/svg">
<path d="M8.6475 13.2929C8.6475 13.2929 9.19078 14.4005 10.464 14.7422C11.7377 15.0833 12.7622 14.3955 12.7622 14.3955M12.4588 10.7498C13.1405 10.3328 13.9983 10.6335 14.4602 11.2865M8.60486 9.71698C9.28603 9.29942 10.1444 9.60013 10.6063 10.2531" stroke="#1B1B1B" stroke-linecap="round" stroke-linejoin="round"/>
<path d="M7.58862 5.92178L6.17421 11.58C5.59826 13.8877 6.35143 16.099 9.55074 17.8972C13.2213 17.9398 14.978 16.4014 15.6331 14.1147L17.2386 8.50748C17.2386 8.50748 15.3424 7.26364 12.5972 6.52819C9.85146 5.79274 7.58751 5.92178 7.58751 5.92178H7.58862Z" stroke="#1B1B1B" stroke-linecap="round" stroke-linejoin="round"/>
<path d="M21 11.7993C21 16.9247 20.3299 18.1137 15.9992 20.6767C11.6701 23.2392 10.3299 23.2392 6.00028 20.6767C1.66955 18.1137 1 16.9247 1 11.7993C1 6.67384 1.6701 5.48483 6.00083 2.92183C10.3299 0.35939 11.6701 0.35939 15.9997 2.92183C20.3305 5.48483 21 6.67384 21 11.7993Z" stroke="#1B1B1B" stroke-linecap="round" stroke-linejoin="round"/>
</svg>
